<?xml version="1.0" encoding="UTF-8" standalone="no"?><!DOCTYPE svg PUBLIC "-//W3C//DTD SVG 1.1//EN" "http://www.w3.org/Graphics/SVG/1.1/DTD/svg11.dtd"><svg width="100%" height="100%" viewBox="0 0 134 134" version="1.1" xmlns="http://www.w3.org/2000/svg" xmlns:xlink="http://www.w3.org/1999/xlink" xml:space="preserve" xmlns:serif="http://www.serif.com/" style="fill-rule:evenodd;clip-rule:evenodd;stroke-linejoin:round;stroke-miterlimit:2;"><path d="M133.333,27.428l0,78.477c0,15.138 -12.29,27.428 -27.428,27.428l-78.477,0c-15.138,0 -27.428,-12.29 -27.428,-27.428l0,-78.477c0,-15.138 12.29,-27.428 27.428,-27.428l78.477,0c15.138,0 27.428,12.29 27.428,27.428Z" style="fill:#18181b;"/><path d="M33.333,69.481l36.54,-36.148l16.182,16.008c2.332,2.307 3.933,4.923 4.803,7.849c0.94,2.926 1.061,5.87 0.365,8.83c-0.696,2.96 -2.262,5.646 -4.698,8.056c-2.436,2.41 -5.203,3.942 -8.3,4.596c-3.028,0.654 -6.038,0.499 -9.03,-0.465l-3.236,10.328c-0.174,0.585 -0.226,1.119 -0.157,1.601c0.105,0.448 0.383,0.895 0.835,1.343l3.08,3.047l-5.533,5.474l-4.02,-3.976c-1.427,-1.412 -2.349,-3.012 -2.767,-4.802c-0.382,-1.825 -0.313,-3.649 0.209,-5.474l3.915,-12.342c-0.383,-0.31 -0.765,-0.654 -1.148,-1.033c-0.348,-0.344 -0.696,-0.689 -1.044,-1.033l-7.726,-7.642l-12.058,11.929l-6.212,-6.145Zm23.751,-11.205l9.187,9.088c1.322,1.308 2.801,2.255 4.437,2.84c1.636,0.585 3.271,0.688 4.907,0.31c1.705,-0.379 3.254,-1.257 4.645,-2.634c1.427,-1.411 2.314,-2.943 2.662,-4.596c0.348,-1.652 0.243,-3.27 -0.313,-4.854c-0.522,-1.618 -1.444,-3.081 -2.767,-4.389l-9.239,-9.14l-13.52,13.375Z" style="fill:#fff;fill-rule:nonzero;"/></svg>