<svg width="32" height="32" viewBox="0 0 32 32" fill="none" xmlns="http://www.w3.org/2000/svg">
<circle cx="16" cy="16" r="16" fill="#18181B"/>
<path d="M8 16.6754L16.7695 8L20.6531 11.842C21.2127 12.3956 21.5969 13.0235 21.8057 13.7258C22.0312 14.4281 22.0604 15.1345 21.8934 15.8451C21.7263 16.5556 21.3505 17.2001 20.7659 17.7785C20.1812 18.3568 19.5173 18.7245 18.7739 18.8815C18.0473 19.0385 17.3249 19.0013 16.6066 18.7699L15.8299 21.2486C15.7881 21.3891 15.7756 21.5172 15.7923 21.6328C15.8174 21.7403 15.8842 21.8477 15.9928 21.9551L16.7319 22.6863L15.404 24L14.4393 23.0457C14.0969 22.7069 13.8756 22.3227 13.7753 21.8931C13.6835 21.4552 13.7002 21.0173 13.8254 20.5794L14.765 17.6174C14.6732 17.543 14.5813 17.4604 14.4894 17.3695C14.4059 17.2869 14.3224 17.2042 14.2389 17.1216L12.3847 15.2874L9.49081 18.1503L8 16.6754ZM13.7002 13.9861L15.9051 16.1673C16.2224 16.4813 16.5774 16.7085 16.9699 16.849C17.3625 16.9894 17.755 17.0142 18.1476 16.9233C18.5568 16.8324 18.9285 16.6217 19.2625 16.2912C19.605 15.9525 19.8179 15.5848 19.9015 15.1882C19.985 14.7916 19.9599 14.4033 19.8263 14.0232C19.701 13.6349 19.4797 13.2838 19.1623 12.9698L16.9449 10.7761L13.7002 13.9861Z" fill="white"/>
</svg>
